<svg xmlns="http://www.w3.org/2000/svg" viewBox="0 0 500 500" fill="none" stroke="currentColor" stroke-width="6" stroke-linecap="round" stroke-linejoin="round">
  <path d="M255,105 L213,112 L163,128 L105,153 L31,192 L33,194 L120,152 L199,123 L245,113 L274,112 L293,115 L304,123 L304,132 L293,148 L258,182 L192,236 L281,170 L301,149 L311,133 L311,121 L303,112 L285,106 L256,105"/>
  <path d="M368,270 L367,271 L360,271 L350,274 L346,274 L342,276 L339,276 L336,278 L333,278 L326,282 L324,282 L322,284 L320,284 L311,290 L309,290 L302,295 L292,299 L282,299 L279,297 L280,282 L278,282 L267,313 L267,316 L265,319 L265,322 L263,326 L263,329 L261,332 L261,335 L263,335 L267,322 L273,309 L273,301 L275,299 L278,299 L281,301 L285,301 L286,302 L295,301 L298,299 L300,299 L302,297 L304,297 L323,285 L325,285 L332,281 L350,275 L354,275 L359,273 L371,272 L371,270 L369,270"/>
  <path d="M127,228 L127,230 L128,231 L128,245 L129,246 L129,257 L130,258 L130,271 L131,272 L131,283 L132,284 L132,297 L133,298 L133,308 L134,309 L134,321 L135,322 L135,331 L136,332 L136,343 L138,343 L138,333 L137,332 L137,317 L136,316 L136,309 L135,308 L135,291 L134,290 L134,285 L135,284 L137,284 L137,282 L135,282 L134,281 L134,277 L133,276 L133,263 L132,262 L132,253 L131,252 L131,233 L130,232 L130,228 L128,228"/>
  <path d="M262,241 L262,243 L261,244 L261,247 L260,248 L259,251 L257,253 L256,256 L254,258 L254,260 L255,261 L255,265 L254,266 L254,268 L253,269 L253,271 L252,272 L252,274 L251,275 L251,278 L249,281 L249,284 L248,285 L248,287 L247,288 L247,291 L245,294 L245,297 L243,300 L243,303 L242,304 L242,306 L241,307 L241,310 L239,313 L239,316 L241,316 L241,314 L242,313 L242,311 L243,310 L243,308 L244,307 L244,304 L246,301 L246,298 L247,297 L247,295 L248,294 L248,291 L250,288 L250,285 L251,284 L251,282 L252,281 L252,279 L253,278 L253,276 L254,275 L254,272 L256,269 L256,266 L257,265 L257,263 L258,262 L258,260 L259,259 L259,257 L260,256 L260,253 L262,250 L262,247 L264,244 L264,241 L263,241"/>
  <path d="M177,282 L176,283 L145,283 L145,285 L174,285 L175,284 L186,284 L186,282 L178,282"/>
  <path d="M234,271 L234,272 L233,273 L229,273 L228,274 L225,274 L224,275 L222,275 L221,276 L218,276 L217,277 L214,277 L213,278 L209,278 L208,279 L205,279 L205,281 L208,281 L209,280 L212,280 L213,279 L217,279 L218,278 L220,278 L221,277 L225,277 L226,276 L227,276 L228,275 L231,275 L231,274 L232,273 L236,273 L236,271 L235,271"/>
</svg>